<svg xmlns="http://www.w3.org/2000/svg" viewBox="0 0 64 64" width="64" height="64">
  <defs>
    <linearGradient id="goldGrad" x1="0%" y1="0%" x2="100%" y2="100%">
      <stop offset="0%" style="stop-color:#D4AF37;stop-opacity:1" />
      <stop offset="50%" style="stop-color:#FFD700;stop-opacity:1" />
      <stop offset="100%" style="stop-color:#B8860B;stop-opacity:1" />
    </linearGradient>
  </defs>
  
  <!-- Background circle with subtle gradient -->
  <circle cx="32" cy="32" r="30" fill="url(#goldGrad)" stroke="#B8860B" stroke-width="2"/>
  
  <!-- Inner circle for depth -->
  <circle cx="32" cy="32" r="26" fill="none" stroke="#FFD700" stroke-width="0.5" opacity="0.7"/>
  
  <!-- Letter C in elegant serif style -->
  <path d="M 44 24 
           C 44 18, 38 14, 32 14
           C 26 14, 20 18, 20 24
           L 20 40
           C 20 46, 26 50, 32 50
           C 38 50, 44 46, 44 40
           L 44 36
           L 38 36
           L 38 40
           C 38 42, 36 44, 32 44
           C 28 44, 26 42, 26 40
           L 26 24
           C 26 22, 28 20, 32 20
           C 36 20, 38 22, 38 24
           L 38 28
           L 44 28
           L 44 24 Z" 
        fill="#FFFFFF" 
        stroke="#B8860B" 
        stroke-width="0.5"/>
  
  <!-- Small decorative diamond accent -->
  <path d="M 46 18 L 48 16 L 50 18 L 48 20 Z" fill="#FFD700" opacity="0.8"/>
</svg>