<svg xmlns="http://www.w3.org/2000/svg" viewBox="0 0 32 32">
  <defs>
    <linearGradient id="gold" x1="0%" y1="0%" x2="100%" y2="100%">
      <stop offset="0%" style="stop-color:#FFD700"/>
      <stop offset="50%" style="stop-color:#FFA500"/>
      <stop offset="100%" style="stop-color:#DAA520"/>
    </linearGradient>
  </defs>
  
  <!-- Background circle -->
  <circle cx="16" cy="16" r="15" fill="url(#gold)" stroke="#B8860B" stroke-width="1"/>
  
  <!-- Letter C -->
  <path d="M 22 12 
           C 22 9, 19 7, 16 7
           C 13 7, 10 9, 10 12
           L 10 20
           C 10 23, 13 25, 16 25
           C 19 25, 22 23, 22 20
           L 22 18
           L 19 18
           L 19 20
           C 19 21, 18 22, 16 22
           C 14 22, 13 21, 13 20
           L 13 12
           C 13 11, 14 10, 16 10
           C 18 10, 19 11, 19 12
           L 19 14
           L 22 14
           L 22 12 Z" 
        fill="white" 
        stroke="#B8860B" 
        stroke-width="0.5"/>
  
  <!-- Small diamond accent -->
  <circle cx="24" cy="8" r="2" fill="#FFD700" opacity="0.8"/>
</svg>